<?xml version="1.0" standalone="no"?>
<!DOCTYPE svg PUBLIC "-//W3C//DTD SVG 20010904//EN"
 "http://www.w3.org/TR/2001/REC-SVG-20010904/DTD/svg10.dtd">
<svg version="1.0" xmlns="http://www.w3.org/2000/svg"
 width="512.000000pt" height="512.000000pt" viewBox="0 0 512.000000 512.000000"
 preserveAspectRatio="xMidYMid meet">
<metadata>
Created by potrace 1.11, written by Peter Selinger 2001-2013
</metadata>
<g transform="translate(0.000000,512.000000) scale(0.100000,-0.100000)"
fill="#000000" stroke="none">
<path d="M2465 4953 c-87 -21 -187 -104 -286 -238 -33 -44 -64 -86 -70 -92
-44 -55 -160 -343 -175 -437 -3 -21 -7 -47 -9 -58 -13 -67 -18 -162 -19 -388
l-2 -255 79 -159 c43 -88 81 -170 83 -182 3 -18 -22 3 -93 75 -117 118 -147
135 -229 136 -55 0 -67 -4 -116 -38 -179 -123 -317 -352 -354 -587 -4 -25 -7
-355 -8 -735 l-1 -690 -22 -30 c-48 -68 -116 -213 -121 -258 0 -4 -4 -29 -8
-55 -4 -26 -8 -145 -8 -264 l-1 -218 117 0 c65 0 118 -3 118 -8 0 -4 -7 -18
-16 -30 -8 -12 -13 -22 -9 -22 3 0 -6 -18 -20 -40 -14 -22 -25 -44 -25 -50 0
-7 108 -10 315 -10 173 0 315 2 315 5 0 3 -16 37 -35 75 -19 38 -35 72 -35 75
0 3 34 5 75 5 41 0 75 -2 75 -5 0 -3 -16 -37 -35 -75 -19 -38 -35 -72 -35 -75
0 -3 71 -5 159 -5 l158 0 -38 72 c-21 40 -39 76 -39 81 0 4 70 7 155 7 85 0
155 -3 155 -7 0 -4 -16 -37 -35 -74 -19 -38 -35 -70 -35 -73 0 -4 70 -6 155
-6 85 0 155 2 155 5 0 3 -16 37 -35 75 -19 38 -35 72 -35 75 0 3 71 5 159 5
l159 0 -29 -52 c-15 -29 -35 -65 -43 -80 l-14 -28 319 0 c175 0 319 3 319 6 0
3 -16 37 -35 75 -19 39 -35 72 -35 75 0 2 33 4 74 4 85 0 84 3 38 -87 -18 -34
-32 -65 -32 -68 0 -3 70 -5 155 -5 85 0 155 3 155 7 0 4 -16 37 -35 74 -19 38
-35 70 -35 73 0 4 53 6 119 6 l118 0 -2 248 c-3 212 -6 256 -23 312 -24 79
-72 180 -109 228 l-27 36 -1 710 c-2 631 -4 719 -19 779 -45 183 -117 311
-247 439 -107 106 -135 122 -214 123 -47 0 -69 -6 -100 -25 -22 -14 -43 -24
-48 -22 -4 1 -6 -1 -5 -5 1 -5 -30 -39 -68 -78 -39 -38 -75 -78 -81 -89 -9
-16 -11 -16 -16 -2 -4 9 27 81 77 179 l83 164 -3 289 c-2 159 -5 301 -7 315
-19 112 -41 204 -58 244 -7 19 -22 64 -24 75 -3 15 -79 166 -105 206 -16 26
-27 51 -23 57 3 6 2 7 -3 4 -5 -3 -28 20 -51 51 -121 166 -222 234 -353 237
-41 1 -84 0 -95 -2z m-805 -4478 c0 -10 -70 -145 -75 -145 -5 0 -75 138 -75
147 0 1 34 3 75 3 41 0 75 -2 75 -5z m1595 -13 c-7 -25 -65 -132 -71 -132 -4
0 -74 136 -74 144 0 2 34 4 76 5 70 1 75 0 69 -17z"/>
</g>
</svg>
